<svg version="1.1" id="Warstwa_1" xmlns="http://www.w3.org/2000/svg" xmlns:xlink="http://www.w3.org/1999/xlink" x="0px" y="0px" viewBox="0 0 250 250" style="enable-background:new 0 0 250 250;" xml:space="preserve" data-time="2500">

<g>
	<path fill="none" stroke="#C3136B" stroke-width="5" stroke-linecap="round" stroke-miterlimit="10" transform="translate(0 0.01)" d="M74.6,184.3l-26.5-26.5c-7.4-7.4-7.4-19.5,0-26.9l59.5-59.5c7.4-7.4,19.5-7.4,26.9,0l26.5,26.5
		c7.4,7.4,7.4,19.5,0,26.9l-59.5,59.5C94.1,191.7,82,191.7,74.6,184.3z" style="stroke-dashoffset: 0px; stroke-dasharray: 362.706, 362.706;"></path>
	<path fill="none" stroke="#C3136B" stroke-width="5" stroke-linecap="round" stroke-miterlimit="10" transform="translate(0 0.01)" d="M139.6,76.6l12.7-12.7c8.3-8.3,22-8.3,30.3,0l3.2,2.6l3.6-3.6" style="stroke-dashoffset: 0px; stroke-dasharray: 60.7933, 60.7933;"></path>
	<path fill="none" stroke="#C3136B" stroke-width="5" stroke-linecap="round" stroke-miterlimit="10" transform="translate(0 0.01)" d="M155,92l15-15l3,2.2c7.7,7.7,22.2,7.9,29.8,0.3l1.9-1.9" style="stroke-dashoffset: 0px; stroke-dasharray: 60.3765, 60.3765;"></path>
	<path d="M147.7,68.6 163,84" fill="none" stroke="#C3136B" stroke-width="5" style="stroke-dashoffset: 0px; stroke-dasharray: 21.7083, 21.7083;"></path>
	<path d="M208.9,45.6 217.6,36.4 231,50.3 223.6,58.5 	" fill="none" stroke="#C3136B" stroke-width="5" style="stroke-dashoffset: 0px; stroke-dasharray: 43.0148, 43.0148;"></path>
	<path fill="none" stroke="#C3136B" stroke-width="5" stroke-linecap="round" stroke-miterlimit="10" transform="translate(0 0.01)" d="M56.9,166.9l-15.5,15.5c-4.2,4.2-11,4.2-15.1,0l0,0c-4.2-4.2-4.2-11,0-15.1l16-16" style="stroke-dashoffset: 0px; stroke-dasharray: 78.1455, 78.1455;"></path>
	<path fill="none" stroke="#C3136B" stroke-width="5" stroke-linecap="round" stroke-miterlimit="10" transform="translate(0 0.01)" d="M79.4,189.2l-26,26c-4.2,4.2-11,4.2-15.1,0l0,0c-4.2-4.2-4.2-11,0-15.1l26-26" style="stroke-dashoffset: 0px; stroke-dasharray: 107.137, 107.137;"></path>
	<path d="M26.2,167.4 41.3,182.5" fill="none" stroke="#C3136B" stroke-width="5" style="stroke-dashoffset: 0px; stroke-dasharray: 21.3546, 21.3546;"></path>
	<path d="M32.7,160.9 47.8,176" fill="none" stroke="#C3136B" stroke-width="5" style="stroke-dashoffset: 0px; stroke-dasharray: 21.3546, 21.3546;"></path>
	<path d="M39.1,199.2 54.2,214.3" fill="none" stroke="#C3136B" stroke-width="5" style="stroke-dashoffset: 0px; stroke-dasharray: 21.3546, 21.3546;"></path>
	<path d="M45.5,192.7 60.7,207.9" fill="none" stroke="#C3136B" stroke-width="5" style="stroke-dashoffset: 0px; stroke-dasharray: 21.496, 21.496;"></path>
	<path d="M44.9,135.1 97.3,187.4" fill="none" stroke="#C3136B" stroke-width="5" style="stroke-dashoffset: 0px; stroke-dasharray: 74.0341, 74.0341;"></path>
	<path d="M113.5,67.4 164.8,118.7" fill="none" stroke="#C3136B" stroke-width="5" style="stroke-dashoffset: 0px; stroke-dasharray: 72.5492, 72.5492;"></path>
	<path d="M118.9,87.1 65.3,140.7" fill="none" stroke="#C3136B" stroke-width="5" style="stroke-dashoffset: 0px; stroke-dasharray: 75.8018, 75.8018;"></path>
	<path d="M144.2,112.4 90.6,166" fill="none" stroke="#C3136B" stroke-width="5" style="stroke-dashoffset: 0px; stroke-dasharray: 75.8018, 75.8018;"></path>
	<path d="M131.6,99.7 77.9,153.4" fill="none" stroke="#C3136B" stroke-width="5" style="stroke-dashoffset: 0px; stroke-dasharray: 75.9433, 75.9433;"></path>
	<path fill="none" stroke="#C3136B" stroke-width="5" stroke-linecap="round" stroke-miterlimit="10" transform="translate(0 0.01)" d="M202,74.6l-8.1-8.1c-4.4-4.4-4.4-11.7,0-16.2l1.8-1.8c4.4-4.4,11.7-4.4,16.2,0l8.1,8.1
		c4.4,4.4,4.4,11.7,0,16.2l-1.8,1.8C213.7,79.1,206.4,79.1,202,74.6z" style="stroke-dashoffset: 0px; stroke-dasharray: 99.8565, 99.8565;"></path>
</g>
</svg>