<svg version="1.1" id="Warstwa_1" xmlns="http://www.w3.org/2000/svg" xmlns:xlink="http://www.w3.org/1999/xlink" x="0px" y="0px" data-time="2000" viewBox="0 0 250 250" style="enable-background:new 0 0 250 250;" xml:space="preserve">
<path d="M108,58.4 108,71.4" fill="none" stroke="#6C6C6C" stroke-width="5" style="stroke-dashoffset: 0px; stroke-dasharray: 13, 13;"></path>
<path fill="none" stroke="#6C6C6C" stroke-width="5" stroke-linecap="round" stroke-miterlimit="10" transform="translate(0 0.01)" d="M82.7,189.1c0,0-2.9,18.5,0,34.3" style="stroke-dashoffset: 0px; stroke-dasharray: 34.4336, 34.4336;"></path>
<path fill="none" stroke="#6C6C6C" stroke-width="5" stroke-linecap="round" stroke-miterlimit="10" transform="translate(0 0.01)" d="M124.2,58.4h26c0,0,10.2,0.7,7.8-8.5c-2.3-9.2-6.3-17.8-14.2-17.8s-19.7,0-19.7,0l-0.4,0c0,0-11.8,0-19.7,0
	S92.3,40.8,90,49.9c-2.3,9.2,7.8,8.5,7.8,8.5h26L124.2,58.4z" style="stroke-dashoffset: 0px; stroke-dasharray: 169.237, 169.237;"></path>
<path d="M140,58.4 140,71.4" fill="none" stroke="#6C6C6C" stroke-width="5" style="stroke-dashoffset: 0px; stroke-dasharray: 13, 13;"></path>
<path fill="none" stroke="#6C6C6C" stroke-width="5" stroke-linecap="round" stroke-miterlimit="10" transform="translate(0 0.01)" d="M185.7,178.1c0,0,4.3-8.3,4.3-30.7s-10.8-50.2-12.8-57s-5.8-14.2-18.8-16.8c-13-2.7-34.2-2.2-34.2-2.2l-0.4,0
	c0,0-21.2-0.5-34.2,2.2c-13,2.7-16.8,10-18.8,16.8c-2,6.8-12.8,34.7-12.8,57s4.3,30.7,4.3,30.7" style="stroke-dashoffset: 0px; stroke-dasharray: 302.312, 302.312;"></path>
<path fill="none" stroke="#6C6C6C" stroke-width="5" stroke-linecap="round" stroke-miterlimit="10" transform="translate(0 0.01)" d="M124.2,223.4h49.5c32.7-3.2,30.7-36.2,30.7-36.2c0-10.8-11.5-10.5-11.5-10.5c-11,0-20.3,13.7-20.3,13.7
	c-23.5-6.8-48.3-6.3-48.3-6.3l-0.4,0c0,0-24.8-0.5-48.3,6.3c0,0-9.3-13.7-20.3-13.7c0,0-11.5-0.3-11.5,10.5c0,0-2,33,30.7,36.2h49.5
	L124.2,223.4z" style="stroke-dashoffset: 0px; stroke-dasharray: 388.856, 388.856;"></path>
<path fill="none" stroke="#6C6C6C" stroke-width="5" stroke-linecap="round" stroke-miterlimit="10" transform="translate(0 0.01)" d="M159.9,178.1c0,0,3.3-30.7-5.3-77.2c0,0-0.8-6.8-8.2-7.8s-22.2-1.3-22.2-1.3l-0.4,0c0,0-14.8,0.3-22.2,1.3
	s-8.2,7.8-8.2,7.8c-8.7,46.5-5.3,77.2-5.3,77.2" style="stroke-dashoffset: 0px; stroke-dasharray: 224.419, 224.419;"></path>
<path fill="none" stroke="#6C6C6C" stroke-width="5" stroke-linecap="round" stroke-miterlimit="10" transform="translate(0 0.01)" d="M167.2,189.1c0,0,2.9,18.5,0,34.3" style="stroke-dashoffset: 0px; stroke-dasharray: 34.4336, 34.4336;"></path>
<path d="M42.1, 65.7 m-5, 0 a 5, 5 0 1,0 10,0 a 5, 5 0 1,0 -10,0 " fill="none" stroke="#6C6C6C" stroke-width="5" style="stroke-dashoffset: 0px; stroke-dasharray: 31.4204, 31.4204;"></path>
<path d="M42.1, 164.2 m-5, 0 a 5, 5 0 1,0 10,0 a 5, 5 0 1,0 -10,0 " fill="none" stroke="#6C6C6C" stroke-width="5" style="stroke-dashoffset: 0px; stroke-dasharray: 31.4205, 31.4205;"></path>
<path d="M213.3, 171.4 m-5, 0 a 5, 5 0 1,0 10,0 a 5, 5 0 1,0 -10,0 " fill="none" stroke="#6C6C6C" stroke-width="5" style="stroke-dashoffset: 0px; stroke-dasharray: 31.4205, 31.4205;"></path>
<path fill="none" stroke="#6C6C6C" stroke-width="5" stroke-linecap="round" stroke-miterlimit="10" transform="translate(0 0.01)" d="M207.1,167.8c-69.3-63-158.5-98.9-158.5-98.9" style="stroke-dashoffset: 0px; stroke-dasharray: 187.638, 187.638;"></path>
<path fill="none" stroke="#6C6C6C" stroke-width="5" stroke-linecap="round" stroke-miterlimit="10" transform="translate(0 0.01)" d="M49.2,162.9c0,0,73.3-30.2,157.8,4.9" style="stroke-dashoffset: 0px; stroke-dasharray: 161.411, 161.411;"></path>
</svg>