<svg version="1.1" id="Warstwa_1" xmlns="http://www.w3.org/2000/svg" xmlns:xlink="http://www.w3.org/1999/xlink" x="0px" y="0px" data-time="2000" viewBox="0 0 250 250" style="enable-background:new 0 0 250 250;" xml:space="preserve">
<g>
	<path d="M125.5, 131.1 m-92, 0 a 92, 92 0 1,0 184,0 a 92, 92 0 1,0 -184,0 " fill="none" stroke="#2E53A0" stroke-width="5" style="stroke-dashoffset: 0px; stroke-dasharray: 578.135, 578.135;"></path>
	<path fill="none" stroke="#2E53A0" stroke-width="5" stroke-linecap="round" stroke-miterlimit="10" transform="translate(0 0.01)" d="M189.9,118.5c0,0,1.1,8.3-5.1,5.8S151.4,100,123.8,100h-0.3c-27.6,0-54.7,21.8-60.9,24.3s-5.4-5.6-5.4-5.6
		l0.2-1.1c6.2-30.8,33.5-54,66.1-54c31.9,0,58.6,22.1,65.7,51.8L189.9,118.5z" style="stroke-dashoffset: 0px; stroke-dasharray: 340.229, 340.229;"></path>
	<path fill="none" stroke="#2E53A0" stroke-width="5" stroke-linecap="round" stroke-miterlimit="10" transform="translate(0 0.01)" d="M59.5,152.4c0,0-1.1-6.6,5.6-6.6s22.3-0.3,28.5,2c6.2,2.3,13.8,10.3,14.8,17.5c1,7.2,2.7,25.2,2.7,25.2
		s0.9,7.6-4.8,5.8l-1.6-0.4c-20.7-6-37.4-21.7-44.7-41.8L59.5,152.4z" style="stroke-dashoffset: 0px; stroke-dasharray: 164.235, 164.235;"></path>
	<path fill="none" stroke="#2E53A0" stroke-width="5" stroke-linecap="round" stroke-miterlimit="10" transform="translate(0 0.01)" d="M187.5,152.4c0,0,1.4-6.6-5.3-6.6c-6.7,0-22.3-0.3-28.5,2c-6.2,2.3-13.8,10.3-14.8,17.5
		c-1,7.2-2.7,25.2-2.7,25.2s-0.9,7.6,4.8,5.8l0.9-0.3c21.1-6,38.1-22,45.3-42.6L187.5,152.4z" style="stroke-dashoffset: 0px; stroke-dasharray: 163.813, 163.813;"></path>
	<path d="M123.2, 130.5 m-16.5, 0 a 16.5, 16.5 0 1,0 33,0 a 16.5, 16.5 0 1,0 -33,0 " fill="none" stroke="#2E53A0" stroke-width="5" style="stroke-dashoffset: 0px; stroke-dasharray: 103.687, 103.687;"></path>
</g>
</svg>